<svg width="63" height="53" viewBox="0 0 63 53" fill="none" xmlns="http://www.w3.org/2000/svg">
<path d="M17.976 47.624C16.12 47.624 14.336 47.336 12.624 46.76C10.928 46.168 9.44 45.328 8.16 44.24C6.88 43.136 5.96 41.816 5.4 40.28L10.896 38.264C11.12 38.904 11.576 39.488 12.264 40.016C12.952 40.544 13.792 40.968 14.784 41.288C15.776 41.608 16.84 41.768 17.976 41.768C19.144 41.768 20.232 41.592 21.24 41.24C22.264 40.872 23.088 40.368 23.712 39.728C24.336 39.072 24.648 38.312 24.648 37.448C24.648 36.568 24.32 35.848 23.664 35.288C23.008 34.712 22.168 34.256 21.144 33.92C20.12 33.584 19.064 33.328 17.976 33.152C15.592 32.784 13.456 32.216 11.568 31.448C9.68 30.68 8.184 29.616 7.08 28.256C5.992 26.896 5.448 25.136 5.448 22.976C5.448 20.944 6.032 19.168 7.2 17.648C8.368 16.128 9.904 14.944 11.808 14.096C13.712 13.248 15.768 12.824 17.976 12.824C19.816 12.824 21.592 13.112 23.304 13.688C25.016 14.264 26.512 15.104 27.792 16.208C29.088 17.312 30.016 18.64 30.576 20.192L25.056 22.184C24.832 21.544 24.376 20.96 23.688 20.432C23 19.904 22.16 19.488 21.168 19.184C20.176 18.864 19.112 18.704 17.976 18.704C16.84 18.688 15.76 18.872 14.736 19.256C13.728 19.624 12.904 20.128 12.264 20.768C11.624 21.408 11.304 22.144 11.304 22.976C11.304 24.048 11.6 24.856 12.192 25.4C12.8 25.944 13.608 26.344 14.616 26.6C15.624 26.84 16.744 27.064 17.976 27.272C20.216 27.624 22.288 28.216 24.192 29.048C26.096 29.88 27.624 30.992 28.776 32.384C29.928 33.76 30.504 35.448 30.504 37.448C30.504 39.48 29.928 41.264 28.776 42.8C27.624 44.32 26.096 45.504 24.192 46.352C22.288 47.2 20.216 47.624 17.976 47.624ZM55.9451 32.384V47H54.5051V32.384C54.5051 30.784 54.1131 29.336 53.3291 28.04C52.5611 26.744 51.5211 25.712 50.2091 24.944C48.9131 24.16 47.4731 23.768 45.8891 23.768C44.3051 23.768 42.8571 24.16 41.5451 24.944C40.2491 25.712 39.2091 26.744 38.4251 28.04C37.6571 29.336 37.2731 30.784 37.2731 32.384V47H35.8331V11H37.2731V27.2C38.1531 25.728 39.3531 24.552 40.8731 23.672C42.3931 22.776 44.0651 22.328 45.8891 22.328C47.7451 22.328 49.4331 22.784 50.9531 23.696C52.4731 24.592 53.6811 25.8 54.5771 27.32C55.4891 28.84 55.9451 30.528 55.9451 32.384Z" fill="black"/>
<rect x="0.25" y="0.25" width="62.5" height="52.5" stroke="black" stroke-width="0.5"/>
</svg>
