<svg width="263" height="91" viewBox="0 0 263 91" fill="none" xmlns="http://www.w3.org/2000/svg">
<path d="M17.976 47.624C16.12 47.624 14.336 47.336 12.624 46.76C10.928 46.168 9.44 45.328 8.16 44.24C6.88 43.136 5.96 41.816 5.4 40.28L10.896 38.264C11.12 38.904 11.576 39.488 12.264 40.016C12.952 40.544 13.792 40.968 14.784 41.288C15.776 41.608 16.84 41.768 17.976 41.768C19.144 41.768 20.232 41.592 21.24 41.24C22.264 40.872 23.088 40.368 23.712 39.728C24.336 39.072 24.648 38.312 24.648 37.448C24.648 36.568 24.32 35.848 23.664 35.288C23.008 34.712 22.168 34.256 21.144 33.92C20.12 33.584 19.064 33.328 17.976 33.152C15.592 32.784 13.456 32.216 11.568 31.448C9.68 30.68 8.184 29.616 7.08 28.256C5.992 26.896 5.448 25.136 5.448 22.976C5.448 20.944 6.032 19.168 7.2 17.648C8.368 16.128 9.904 14.944 11.808 14.096C13.712 13.248 15.768 12.824 17.976 12.824C19.816 12.824 21.592 13.112 23.304 13.688C25.016 14.264 26.512 15.104 27.792 16.208C29.088 17.312 30.016 18.64 30.576 20.192L25.056 22.184C24.832 21.544 24.376 20.96 23.688 20.432C23 19.904 22.16 19.488 21.168 19.184C20.176 18.864 19.112 18.704 17.976 18.704C16.84 18.688 15.76 18.872 14.736 19.256C13.728 19.624 12.904 20.128 12.264 20.768C11.624 21.408 11.304 22.144 11.304 22.976C11.304 24.048 11.6 24.856 12.192 25.4C12.8 25.944 13.608 26.344 14.616 26.6C15.624 26.84 16.744 27.064 17.976 27.272C20.216 27.624 22.288 28.216 24.192 29.048C26.096 29.88 27.624 30.992 28.776 32.384C29.928 33.76 30.504 35.448 30.504 37.448C30.504 39.48 29.928 41.264 28.776 42.8C27.624 44.32 26.096 45.504 24.192 46.352C22.288 47.2 20.216 47.624 17.976 47.624ZM57.4058 47H50.6618L45.1898 37.568L41.8298 41.576V47H35.9738V11H41.8298V32.48L49.7738 23H57.4298L49.1978 32.816L57.4058 47ZM61.6853 47L61.6613 23H67.5173L67.5413 25.136C68.3573 24.272 69.3333 23.592 70.4693 23.096C71.6053 22.584 72.8293 22.328 74.1413 22.328C75.0213 22.328 75.9013 22.456 76.7813 22.712L74.4773 28.616C73.8693 28.376 73.2613 28.256 72.6533 28.256C71.7093 28.256 70.8453 28.488 70.0613 28.952C69.2933 29.4 68.6773 30.016 68.2133 30.8C67.7653 31.568 67.5413 32.424 67.5413 33.368V47H61.6853ZM79.38 23H85.236V47H79.38V23ZM82.356 19.904C81.492 19.904 80.764 19.624 80.172 19.064C79.58 18.488 79.284 17.768 79.284 16.904C79.284 16.056 79.58 15.344 80.172 14.768C80.764 14.192 81.484 13.904 82.332 13.904C83.18 13.904 83.892 14.192 84.468 14.768C85.06 15.344 85.356 16.056 85.356 16.904C85.356 17.768 85.068 18.488 84.492 19.064C83.916 19.624 83.204 19.904 82.356 19.904ZM105.111 47H97.551L88.815 22.976H95.055L101.343 40.256L107.607 22.976H113.847L105.111 47ZM138.258 32.384V47H136.818V32.384C136.818 30.784 136.426 29.336 135.642 28.04C134.874 26.744 133.834 25.712 132.522 24.944C131.226 24.16 129.786 23.768 128.202 23.768C126.618 23.768 125.17 24.16 123.858 24.944C122.562 25.712 121.522 26.744 120.738 28.04C119.97 29.336 119.586 30.784 119.586 32.384V47H118.146V11H119.586V27.2C120.466 25.728 121.666 24.552 123.186 23.672C124.706 22.776 126.378 22.328 128.202 22.328C130.058 22.328 131.746 22.784 133.266 23.696C134.786 24.592 135.994 25.8 136.89 27.32C137.802 28.84 138.258 30.528 138.258 32.384ZM153.128 47.624C150.92 47.624 148.904 47.056 147.08 45.92C145.272 44.784 143.824 43.264 142.736 41.36C141.664 39.44 141.128 37.32 141.128 35C141.128 33.24 141.44 31.6 142.064 30.08C142.688 28.544 143.544 27.2 144.632 26.048C145.736 24.88 147.016 23.968 148.472 23.312C149.928 22.656 151.48 22.328 153.128 22.328C155.336 22.328 157.344 22.896 159.152 24.032C160.976 25.168 162.424 26.696 163.496 28.616C164.584 30.536 165.128 32.664 165.128 35C165.128 36.744 164.816 38.376 164.192 39.896C163.568 41.416 162.704 42.76 161.6 43.928C160.512 45.08 159.24 45.984 157.784 46.64C156.344 47.296 154.792 47.624 153.128 47.624ZM153.128 46.184C155.112 46.184 156.896 45.672 158.48 44.648C160.08 43.608 161.344 42.24 162.272 40.544C163.216 38.848 163.688 37 163.688 35C163.688 32.984 163.216 31.128 162.272 29.432C161.344 27.72 160.08 26.352 158.48 25.328C156.896 24.288 155.112 23.768 153.128 23.768C151.128 23.768 149.328 24.288 147.728 25.328C146.144 26.352 144.888 27.72 143.96 29.432C143.032 31.128 142.568 32.984 142.568 35C142.568 37.08 143.048 38.968 144.008 40.664C144.968 42.344 146.248 43.688 147.848 44.696C149.448 45.688 151.208 46.184 153.128 46.184ZM150.128 20.864C149.824 20.864 149.552 20.768 149.312 20.576C149.088 20.368 148.976 20.112 148.976 19.808C148.976 19.52 149.088 19.264 149.312 19.04C149.552 18.816 149.824 18.704 150.128 18.704C150.416 18.704 150.672 18.816 150.896 19.04C151.12 19.264 151.232 19.52 151.232 19.808C151.232 20.112 151.12 20.368 150.896 20.576C150.672 20.768 150.416 20.864 150.128 20.864ZM156.176 20.864C155.872 20.864 155.6 20.768 155.36 20.576C155.136 20.368 155.024 20.112 155.024 19.808C155.024 19.52 155.136 19.264 155.36 19.04C155.6 18.816 155.872 18.704 156.176 18.704C156.464 18.704 156.72 18.816 156.944 19.04C157.168 19.264 157.28 19.52 157.28 19.808C157.28 20.112 157.168 20.368 156.944 20.576C156.72 20.768 156.464 20.864 156.176 20.864ZM169.427 47V23H170.867V27.2C171.747 25.728 172.947 24.552 174.467 23.672C175.987 22.776 177.659 22.328 179.483 22.328C180.427 22.328 181.331 22.448 182.195 22.688L181.571 24.032C180.867 23.856 180.171 23.768 179.483 23.768C177.899 23.768 176.451 24.16 175.139 24.944C173.843 25.712 172.803 26.744 172.019 28.04C171.251 29.336 170.867 30.784 170.867 32.384V47H169.427ZM205.664 32.384V47H204.224V32.384C204.224 30.784 203.832 29.336 203.048 28.04C202.28 26.744 201.24 25.712 199.928 24.944C198.632 24.16 197.192 23.768 195.608 23.768C194.024 23.768 192.576 24.16 191.264 24.944C189.968 25.712 188.928 26.744 188.144 28.04C187.376 29.336 186.992 30.784 186.992 32.384V47H185.552V23H186.992V27.2C187.872 25.728 189.072 24.552 190.592 23.672C192.112 22.776 193.784 22.328 195.608 22.328C197.464 22.328 199.152 22.784 200.672 23.696C202.192 24.592 203.4 25.8 204.296 27.32C205.208 28.84 205.664 30.528 205.664 32.384ZM230.95 23H232.39V47H230.95V41.384C230.086 43.256 228.822 44.768 227.158 45.92C225.494 47.056 223.494 47.624 221.158 47.624C219.414 47.624 217.782 47.296 216.262 46.64C214.742 45.984 213.398 45.08 212.23 43.928C211.078 42.76 210.174 41.416 209.518 39.896C208.862 38.376 208.534 36.744 208.534 35C208.534 33.24 208.862 31.6 209.518 30.08C210.174 28.544 211.078 27.2 212.23 26.048C213.398 24.88 214.742 23.968 216.262 23.312C217.782 22.656 219.414 22.328 221.158 22.328C223.494 22.328 225.494 22.904 227.158 24.056C228.822 25.192 230.086 26.696 230.95 28.568V23ZM221.158 46.184C223.222 46.184 224.974 45.68 226.414 44.672C227.87 43.664 228.974 42.312 229.726 40.616C230.478 38.92 230.854 37.048 230.854 35C230.854 32.904 230.47 31.008 229.702 29.312C228.934 27.616 227.822 26.272 226.366 25.28C224.926 24.272 223.19 23.768 221.158 23.768C219.094 23.768 217.214 24.272 215.518 25.28C213.822 26.288 212.47 27.648 211.462 29.36C210.47 31.056 209.974 32.936 209.974 35C209.974 37.096 210.486 38.992 211.51 40.688C212.55 42.368 213.918 43.704 215.614 44.696C217.31 45.688 219.158 46.184 221.158 46.184ZM257.32 32.384V47H255.88V32.384C255.88 30.784 255.488 29.336 254.704 28.04C253.936 26.744 252.896 25.712 251.584 24.944C250.288 24.16 248.848 23.768 247.264 23.768C245.68 23.768 244.232 24.16 242.92 24.944C241.624 25.712 240.584 26.744 239.8 28.04C239.032 29.336 238.648 30.784 238.648 32.384V47H237.208V23H238.648V27.2C239.528 25.728 240.728 24.552 242.248 23.672C243.768 22.776 245.44 22.328 247.264 22.328C249.12 22.328 250.808 22.784 252.328 23.696C253.848 24.592 255.056 25.8 255.952 27.32C256.864 28.84 257.32 30.528 257.32 32.384Z" fill="black"/>
<path d="M28.864 60.6V62.84H21.184V83H18.944V62.84H11.28V60.6H28.864ZM36.6163 83.416C35.1443 83.416 33.8003 83.0373 32.5843 82.28C31.3789 81.5227 30.4136 80.5093 29.6883 79.24C28.9736 77.96 28.6163 76.5467 28.6163 75C28.6163 73.8267 28.8243 72.7333 29.2403 71.72C29.6563 70.696 30.2269 69.8 30.9523 69.032C31.6883 68.2533 32.5416 67.6453 33.5123 67.208C34.4829 66.7707 35.5176 66.552 36.6163 66.552C38.0883 66.552 39.4269 66.9307 40.6323 67.688C41.8483 68.4453 42.8136 69.464 43.5283 70.744C44.2536 72.024 44.6163 73.4427 44.6163 75C44.6163 76.1627 44.4083 77.2507 43.9923 78.264C43.5763 79.2773 43.0003 80.1733 42.2643 80.952C41.5389 81.72 40.6909 82.3227 39.7203 82.76C38.7603 83.1973 37.7256 83.416 36.6163 83.416ZM36.6163 81.176C37.7043 81.176 38.6803 80.8933 39.5443 80.328C40.4189 79.752 41.1069 78.9947 41.6083 78.056C42.1203 77.1173 42.3763 76.0987 42.3763 75C42.3763 73.88 42.1203 72.8507 41.6083 71.912C41.0963 70.9627 40.4029 70.2053 39.5283 69.64C38.6643 69.0747 37.6936 68.792 36.6163 68.792C35.5283 68.792 34.5469 69.08 33.6723 69.656C32.8083 70.2213 32.1203 70.9733 31.6083 71.912C31.1069 72.8507 30.8563 73.88 30.8563 75C30.8563 76.152 31.1176 77.1973 31.6403 78.136C32.1629 79.064 32.8616 79.8053 33.7363 80.36C34.6109 80.904 35.5709 81.176 36.6163 81.176ZM47.3263 83V67H49.5663V69.208C50.1316 68.3973 50.8676 67.752 51.7743 67.272C52.6809 66.792 53.6676 66.552 54.7343 66.552C55.3529 66.552 55.9503 66.632 56.5263 66.792L55.6143 69.016C55.1663 68.8773 54.7289 68.808 54.3023 68.808C53.4383 68.808 52.6436 69.0213 51.9183 69.448C51.2036 69.8747 50.6329 70.4453 50.2063 71.16C49.7796 71.8747 49.5663 72.6693 49.5663 73.544V83H47.3263ZM66.3248 66.552C67.8821 66.552 69.2954 66.9307 70.5648 67.688C71.8448 68.4453 72.8634 69.464 73.6208 70.744C74.3781 72.0133 74.7568 73.4267 74.7568 74.984C74.7568 76.1467 74.5381 77.24 74.1007 78.264C73.6634 79.2773 73.0554 80.1733 72.2768 80.952C71.5088 81.72 70.6128 82.3227 69.5888 82.76C68.5754 83.1973 67.4874 83.416 66.3248 83.416C65.0021 83.416 63.8608 83.1013 62.9008 82.472C61.9408 81.8427 61.1834 81.0213 60.6288 80.008V83H58.3888V59H60.6288V69.96C61.1834 68.9467 61.9408 68.1253 62.9008 67.496C63.8608 66.8667 65.0021 66.552 66.3248 66.552ZM66.3088 81.224C67.4501 81.224 68.4848 80.9467 69.4128 80.392C70.3408 79.8267 71.0821 79.0693 71.6368 78.12C72.1914 77.1707 72.4688 76.1253 72.4688 74.984C72.4688 73.8107 72.1861 72.7547 71.6208 71.816C71.0554 70.8667 70.3034 70.1147 69.3648 69.56C68.4368 69.0053 67.4181 68.728 66.3088 68.728C65.1781 68.728 64.1968 69.0107 63.3648 69.576C62.5434 70.1413 61.9088 70.8987 61.4608 71.848C61.0234 72.7973 60.8048 73.8427 60.8048 74.984C60.8048 76.1467 61.0288 77.2027 61.4768 78.152C61.9248 79.0907 62.5594 79.8373 63.3808 80.392C64.2128 80.9467 65.1888 81.224 66.3088 81.224ZM74.1262 91V88.76C74.9262 88.76 75.6409 88.584 76.2703 88.232C76.8996 87.88 77.3956 87.3947 77.7582 86.776C78.1209 86.168 78.3023 85.4853 78.3023 84.728V67H80.5423V84.728C80.5423 85.88 80.2596 86.9307 79.6943 87.88C79.1396 88.8293 78.3769 89.5867 77.4062 90.152C76.4463 90.7173 75.3529 91 74.1262 91ZM79.4383 64.2C79.0756 64.2 78.7663 64.0827 78.5103 63.848C78.2649 63.6027 78.1423 63.2987 78.1423 62.936C78.1423 62.5733 78.2649 62.2747 78.5103 62.04C78.7663 61.7947 79.0756 61.672 79.4383 61.672C79.7903 61.672 80.0889 61.7947 80.3343 62.04C80.5903 62.2747 80.7183 62.5733 80.7183 62.936C80.7183 63.2987 80.5956 63.6027 80.3503 63.848C80.1049 64.0827 79.8009 64.2 79.4383 64.2ZM91.2725 83.416C89.8005 83.416 88.4565 83.0373 87.2405 82.28C86.0352 81.5227 85.0698 80.5093 84.3445 79.24C83.6298 77.96 83.2725 76.5467 83.2725 75C83.2725 73.8267 83.4805 72.7333 83.8965 71.72C84.3125 70.696 84.8832 69.8 85.6085 69.032C86.3445 68.2533 87.1978 67.6453 88.1685 67.208C89.1392 66.7707 90.1738 66.552 91.2725 66.552C92.7445 66.552 94.0832 66.9307 95.2885 67.688C96.5045 68.4453 97.4698 69.464 98.1845 70.744C98.9098 72.024 99.2725 73.4427 99.2725 75C99.2725 76.1627 99.0645 77.2507 98.6485 78.264C98.2325 79.2773 97.6565 80.1733 96.9205 80.952C96.1952 81.72 95.3472 82.3227 94.3765 82.76C93.4165 83.1973 92.3818 83.416 91.2725 83.416ZM91.2725 81.176C92.3605 81.176 93.3365 80.8933 94.2005 80.328C95.0752 79.752 95.7632 78.9947 96.2645 78.056C96.7765 77.1173 97.0325 76.0987 97.0325 75C97.0325 73.88 96.7765 72.8507 96.2645 71.912C95.7525 70.9627 95.0592 70.2053 94.1845 69.64C93.3205 69.0747 92.3498 68.792 91.2725 68.792C90.1845 68.792 89.2032 69.08 88.3285 69.656C87.4645 70.2213 86.7765 70.9733 86.2645 71.912C85.7632 72.8507 85.5125 73.88 85.5125 75C85.5125 76.152 85.7738 77.1973 86.2965 78.136C86.8192 79.064 87.5178 79.8053 88.3925 80.36C89.2672 80.904 90.2272 81.176 91.2725 81.176ZM88.7765 65.704C88.4138 65.704 88.0992 65.5867 87.8325 65.352C87.5765 65.1067 87.4485 64.8027 87.4485 64.44C87.4485 64.088 87.5765 63.784 87.8325 63.528C88.0992 63.272 88.4138 63.144 88.7765 63.144C89.1285 63.144 89.4272 63.272 89.6725 63.528C89.9285 63.784 90.0565 64.088 90.0565 64.44C90.0565 64.8027 89.9285 65.1067 89.6725 65.352C89.4272 65.5867 89.1285 65.704 88.7765 65.704ZM93.8005 65.704C93.4378 65.704 93.1285 65.5867 92.8725 65.352C92.6165 65.1067 92.4885 64.8027 92.4885 64.44C92.4885 64.088 92.6165 63.784 92.8725 63.528C93.1285 63.272 93.4378 63.144 93.8005 63.144C94.1525 63.144 94.4565 63.272 94.7125 63.528C94.9685 63.784 95.0965 64.088 95.0965 64.44C95.0965 64.8027 94.9685 65.1067 94.7125 65.352C94.4565 65.5867 94.1525 65.704 93.8005 65.704ZM101.983 83V67H104.223V69.208C104.788 68.3973 105.524 67.752 106.431 67.272C107.337 66.792 108.324 66.552 109.391 66.552C110.009 66.552 110.607 66.632 111.183 66.792L110.271 69.016C109.823 68.8773 109.385 68.808 108.959 68.808C108.095 68.808 107.3 69.0213 106.575 69.448C105.86 69.8747 105.289 70.4453 104.863 71.16C104.436 71.8747 104.223 72.6693 104.223 73.544V83H101.983ZM127.216 73.096V83H124.976V73.544C124.976 72.6693 124.762 71.8747 124.336 71.16C123.909 70.4453 123.338 69.8747 122.624 69.448C121.909 69.0213 121.114 68.808 120.24 68.808C119.376 68.808 118.581 69.0213 117.856 69.448C117.141 69.8747 116.57 70.4453 116.144 71.16C115.717 71.8747 115.504 72.6693 115.504 73.544V83H113.264V67H115.504V69.208C116.069 68.3973 116.805 67.752 117.712 67.272C118.618 66.792 119.605 66.552 120.672 66.552C121.877 66.552 122.976 66.8453 123.968 67.432C124.96 68.0187 125.749 68.808 126.336 69.8C126.922 70.792 127.216 71.8907 127.216 73.096ZM145.068 83L136.94 60.6H139.308L146.412 80.184L153.548 60.6H155.916L147.772 83H145.068ZM170.166 67H172.406V83H170.166L170.086 80.024C169.563 81.0373 168.832 81.8587 167.894 82.488C166.955 83.1067 165.835 83.416 164.534 83.416C163.36 83.416 162.262 83.1973 161.238 82.76C160.214 82.312 159.312 81.6987 158.534 80.92C157.755 80.1413 157.147 79.24 156.71 78.216C156.272 77.192 156.054 76.0933 156.054 74.92C156.054 73.768 156.267 72.6853 156.694 71.672C157.131 70.6587 157.728 69.768 158.486 69C159.254 68.232 160.139 67.6347 161.142 67.208C162.155 66.7707 163.238 66.552 164.39 66.552C165.723 66.552 166.886 66.872 167.878 67.512C168.87 68.1413 169.659 68.968 170.246 69.992L170.166 67ZM164.486 81.24C165.627 81.24 166.608 80.9627 167.43 80.408C168.251 79.8427 168.88 79.0853 169.318 78.136C169.766 77.1867 169.99 76.1413 169.99 75C169.99 73.8267 169.766 72.7707 169.318 71.832C168.87 70.8827 168.235 70.1307 167.414 69.576C166.592 69.0213 165.616 68.744 164.486 68.744C163.355 68.744 162.32 69.0267 161.382 69.592C160.454 70.1467 159.712 70.8987 159.158 71.848C158.614 72.7973 158.342 73.848 158.342 75C158.342 76.1627 158.624 77.2187 159.19 78.168C159.755 79.1067 160.502 79.8533 161.43 80.408C162.368 80.9627 163.387 81.24 164.486 81.24ZM164.63 65.48C163.926 65.48 163.323 65.2293 162.822 64.728C162.331 64.216 162.086 63.6133 162.086 62.92C162.086 62.4613 162.198 62.04 162.422 61.656C162.656 61.272 162.966 60.968 163.35 60.744C163.734 60.5093 164.16 60.392 164.63 60.392C165.323 60.392 165.915 60.6427 166.406 61.144C166.907 61.6347 167.158 62.2267 167.158 62.92C167.158 63.6347 166.907 64.2427 166.406 64.744C165.915 65.2347 165.323 65.48 164.63 65.48ZM164.63 64.232C164.982 64.232 165.28 64.104 165.526 63.848C165.782 63.592 165.91 63.2827 165.91 62.92C165.91 62.5787 165.782 62.2853 165.526 62.04C165.28 61.7947 164.982 61.672 164.63 61.672C164.267 61.672 163.963 61.7947 163.718 62.04C163.472 62.2853 163.35 62.5787 163.35 62.92C163.35 63.2827 163.472 63.592 163.718 63.848C163.963 64.104 164.267 64.232 164.63 64.232ZM175.608 83V67H177.848V69.208C178.413 68.3973 179.149 67.752 180.056 67.272C180.962 66.792 181.949 66.552 183.016 66.552C183.634 66.552 184.232 66.632 184.808 66.792L183.896 69.016C183.448 68.8773 183.01 68.808 182.584 68.808C181.72 68.808 180.925 69.0213 180.2 69.448C179.485 69.8747 178.914 70.4453 178.488 71.16C178.061 71.8747 177.848 72.6693 177.848 73.544V83H175.608ZM191.77 83.304C190.896 83.2827 190.042 83.1227 189.21 82.824C188.378 82.5253 187.653 82.12 187.034 81.608C186.416 81.096 185.973 80.5147 185.706 79.864L187.642 79.032C187.813 79.448 188.128 79.832 188.586 80.184C189.056 80.5253 189.589 80.8027 190.186 81.016C190.784 81.2187 191.376 81.32 191.962 81.32C192.613 81.32 193.221 81.2133 193.786 81C194.352 80.7867 194.81 80.4827 195.162 80.088C195.525 79.6827 195.706 79.208 195.706 78.664C195.706 78.0773 195.514 77.6187 195.13 77.288C194.746 76.9467 194.261 76.68 193.674 76.488C193.088 76.2853 192.485 76.0933 191.866 75.912C190.736 75.6027 189.738 75.2613 188.874 74.888C188.01 74.5147 187.333 74.04 186.842 73.464C186.362 72.8773 186.122 72.1253 186.122 71.208C186.122 70.2373 186.394 69.4 186.938 68.696C187.493 67.9813 188.213 67.432 189.098 67.048C189.994 66.6533 190.949 66.456 191.962 66.456C193.264 66.456 194.448 66.7387 195.514 67.304C196.592 67.8693 197.37 68.6213 197.85 69.56L196.042 70.632C195.85 70.1947 195.546 69.816 195.13 69.496C194.714 69.176 194.24 68.9253 193.706 68.744C193.184 68.5627 192.65 68.4667 192.106 68.456C191.424 68.4453 190.789 68.5467 190.202 68.76C189.616 68.9627 189.141 69.2667 188.778 69.672C188.426 70.0773 188.25 70.5733 188.25 71.16C188.25 71.7467 188.426 72.1947 188.778 72.504C189.13 72.8027 189.605 73.048 190.202 73.24C190.81 73.4213 191.493 73.6347 192.25 73.88C193.221 74.1893 194.133 74.5413 194.986 74.936C195.84 75.3307 196.528 75.8213 197.05 76.408C197.573 76.9947 197.829 77.736 197.818 78.632C197.818 79.592 197.53 80.4293 196.954 81.144C196.378 81.8587 195.632 82.408 194.714 82.792C193.797 83.1653 192.816 83.336 191.77 83.304ZM213.603 67H215.843V83H213.603L213.523 80.024C213.001 81.0373 212.27 81.8587 211.331 82.488C210.393 83.1067 209.273 83.416 207.971 83.416C206.798 83.416 205.699 83.1973 204.675 82.76C203.651 82.312 202.75 81.6987 201.971 80.92C201.193 80.1413 200.585 79.24 200.147 78.216C199.71 77.192 199.491 76.0933 199.491 74.92C199.491 73.768 199.705 72.6853 200.131 71.672C200.569 70.6587 201.166 69.768 201.923 69C202.691 68.232 203.577 67.6347 204.579 67.208C205.593 66.7707 206.675 66.552 207.827 66.552C209.161 66.552 210.323 66.872 211.315 67.512C212.307 68.1413 213.097 68.968 213.683 69.992L213.603 67ZM207.923 81.24C209.065 81.24 210.046 80.9627 210.867 80.408C211.689 79.8427 212.318 79.0853 212.755 78.136C213.203 77.1867 213.427 76.1413 213.427 75C213.427 73.8267 213.203 72.7707 212.755 71.832C212.307 70.8827 211.673 70.1307 210.851 69.576C210.03 69.0213 209.054 68.744 207.923 68.744C206.793 68.744 205.758 69.0267 204.819 69.592C203.891 70.1467 203.15 70.8987 202.595 71.848C202.051 72.7973 201.779 73.848 201.779 75C201.779 76.1627 202.062 77.2187 202.627 78.168C203.193 79.1067 203.939 79.8533 204.867 80.408C205.806 80.9627 206.825 81.24 207.923 81.24ZM231.453 67H233.693V83.592C233.693 84.616 233.469 85.576 233.021 86.472C232.583 87.368 231.986 88.152 231.229 88.824C230.482 89.5067 229.629 90.04 228.669 90.424C227.709 90.808 226.711 91 225.677 91C224.567 91 223.495 90.744 222.461 90.232C221.426 89.7307 220.525 89.0587 219.757 88.216C218.999 87.3733 218.461 86.44 218.141 85.416L220.205 84.472C220.407 85.272 220.786 85.992 221.341 86.632C221.906 87.2827 222.567 87.7947 223.325 88.168C224.093 88.552 224.877 88.744 225.677 88.744C226.413 88.744 227.122 88.6053 227.805 88.328C228.498 88.0613 229.117 87.6933 229.661 87.224C230.215 86.7547 230.653 86.2053 230.973 85.576C231.293 84.9573 231.453 84.296 231.453 83.592V80.056C230.898 81.0587 230.146 81.8693 229.197 82.488C228.258 83.1067 227.165 83.416 225.917 83.416C224.797 83.416 223.741 83.1973 222.749 82.76C221.767 82.3227 220.903 81.72 220.157 80.952C219.41 80.1733 218.823 79.2773 218.397 78.264C217.981 77.2507 217.773 76.1627 217.773 75C217.773 73.8373 217.981 72.7493 218.397 71.736C218.823 70.712 219.41 69.816 220.157 69.048C220.903 68.2693 221.767 67.6613 222.749 67.224C223.741 66.7867 224.797 66.568 225.917 66.568C227.165 66.568 228.258 66.8773 229.197 67.496C230.146 68.104 230.898 68.9147 231.453 69.928V67ZM225.933 81.24C227.042 81.24 227.997 80.952 228.797 80.376C229.607 79.8 230.231 79.0373 230.669 78.088C231.106 77.1387 231.325 76.1093 231.325 75C231.325 73.8587 231.101 72.8187 230.653 71.88C230.215 70.9307 229.591 70.1733 228.781 69.608C227.97 69.032 227.021 68.744 225.933 68.744C224.845 68.744 223.853 69.0267 222.957 69.592C222.071 70.1467 221.367 70.8987 220.845 71.848C220.322 72.7973 220.061 73.848 220.061 75C220.061 76.152 220.327 77.2027 220.861 78.152C221.394 79.0907 222.103 79.8427 222.989 80.408C223.885 80.9627 224.866 81.24 225.933 81.24ZM250.541 67H252.781V83H250.541L250.461 80.024C249.938 81.0373 249.207 81.8587 248.269 82.488C247.33 83.1067 246.21 83.416 244.909 83.416C243.735 83.416 242.637 83.1973 241.613 82.76C240.589 82.312 239.687 81.6987 238.909 80.92C238.13 80.1413 237.522 79.24 237.085 78.216C236.647 77.192 236.429 76.0933 236.429 74.92C236.429 73.768 236.642 72.6853 237.069 71.672C237.506 70.6587 238.103 69.768 238.861 69C239.629 68.232 240.514 67.6347 241.517 67.208C242.53 66.7707 243.613 66.552 244.765 66.552C246.098 66.552 247.261 66.872 248.253 67.512C249.245 68.1413 250.034 68.968 250.621 69.992L250.541 67ZM244.861 81.24C246.002 81.24 246.983 80.9627 247.805 80.408C248.626 79.8427 249.255 79.0853 249.693 78.136C250.141 77.1867 250.365 76.1413 250.365 75C250.365 73.8267 250.141 72.7707 249.693 71.832C249.245 70.8827 248.61 70.1307 247.789 69.576C246.967 69.0213 245.991 68.744 244.861 68.744C243.73 68.744 242.695 69.0267 241.757 69.592C240.829 70.1467 240.087 70.8987 239.533 71.848C238.989 72.7973 238.717 73.848 238.717 75C238.717 76.1627 238.999 77.2187 239.565 78.168C240.13 79.1067 240.877 79.8533 241.805 80.408C242.743 80.9627 243.762 81.24 244.861 81.24Z" fill="black"/>
<rect x="0.25" y="0.25" width="262.5" height="52.5" stroke="black" stroke-width="0.5"/>
</svg>
