<?xml version="1.0" encoding="UTF-8"?>
<svg id="Lager_2" data-name="Lager 2" xmlns="http://www.w3.org/2000/svg" xmlns:xlink="http://www.w3.org/1999/xlink" viewBox="0 0 592.63 150.46">
  <defs>
    <style>
      .cls-1 {
        fill: url(#turkos_grön-2);
      }

      .cls-1, .cls-2 {
        stroke-width: 0px;
      }

      .cls-3 {
        fill: none;
        stroke: url(#turkos_grön);
        stroke-miterlimit: 10;
      }

      .cls-2 {
        fill: #1d1d1b;
      }
    </style>
    <linearGradient id="turkos_grön" data-name="turkos grön" x1="241.75" y1="93.58" x2="592.63" y2="93.58" gradientUnits="userSpaceOnUse">
      <stop offset="0" stop-color="#4abcc2"/>
      <stop offset=".14" stop-color="#009482"/>
      <stop offset=".33" stop-color="#6dc1af"/>
      <stop offset=".61" stop-color="#7ec185"/>
      <stop offset=".82" stop-color="#bdd99f"/>
      <stop offset=".98" stop-color="#98c21f"/>
    </linearGradient>
    <linearGradient id="turkos_grön-2" data-name="turkos grön" x1="60.16" y1="51.59" x2="183.86" y2="51.59" gradientTransform="translate(-12.87 22.25) rotate(-9.63)" xlink:href="#turkos_grön"/>
  </defs>
  <g id="Lager_1-2" data-name="Lager 1">
    <g id="Logga">
      <g>
        <path class="cls-2" d="M410.22,25.17l-9.13-25.17h1.15l8.52,23.51,8.56-23.51h1.15l-9.17,25.17h-1.08Z"/>
        <path class="cls-2" d="M438.69,7.19h1.08v17.98h-1.08v-4.21c-.65,1.4-1.59,2.53-2.84,3.39s-2.74,1.29-4.49,1.29c-1.31,0-2.53-.25-3.67-.74-1.14-.49-2.14-1.17-3.01-2.04-.87-.87-1.55-1.87-2.04-3.01-.49-1.14-.74-2.36-.74-3.67s.25-2.55.74-3.69,1.17-2.15,2.04-3.02c.87-.87,1.87-1.55,3.01-2.04,1.14-.49,2.36-.74,3.67-.74,1.75,0,3.25.43,4.49,1.29,1.25.86,2.19,1.99,2.84,3.39v-4.17ZM431.36,24.55c1.55,0,2.86-.38,3.95-1.13,1.08-.75,1.91-1.77,2.47-3.04.56-1.27.84-2.67.84-4.21s-.29-2.99-.86-4.26c-.58-1.27-1.4-2.28-2.49-3.03s-2.39-1.12-3.91-1.12-2.96.38-4.22,1.13c-1.27.75-2.28,1.77-3.03,3.05s-1.12,2.69-1.12,4.23.39,2.99,1.16,4.25c.77,1.26,1.79,2.27,3.06,3.01,1.27.74,2.65,1.11,4.15,1.11ZM431.28,5.12c-.68,0-1.27-.25-1.75-.75-.49-.5-.73-1.09-.73-1.77,0-.44.11-.85.33-1.23s.52-.68.9-.91c.38-.23.79-.34,1.25-.34.68,0,1.27.25,1.75.74.49.49.73,1.07.73,1.74s-.24,1.29-.73,1.78c-.49.49-1.07.74-1.75.74ZM431.28,4.26c.46,0,.84-.16,1.15-.48s.47-.71.47-1.18c0-.43-.16-.8-.47-1.11s-.7-.47-1.15-.47-.82.16-1.14.47-.48.68-.48,1.11c0,.47.16.86.48,1.18s.7.48,1.14.48Z"/>
        <path class="cls-2" d="M443.36,25.17V7.19h1.08v3.15c.66-1.1,1.56-1.99,2.7-2.65s2.39-1,3.76-1c.71,0,1.38.09,2.03.27l-.47,1.01c-.53-.13-1.05-.2-1.56-.2-1.19,0-2.27.29-3.24.87-.98.58-1.76,1.36-2.34,2.33s-.87,2.06-.87,3.25v10.95h-1.08Z"/>
        <path class="cls-2" d="M461.19,25.53c-1.03,0-2.03-.17-3.01-.52-.98-.35-1.82-.81-2.54-1.4-.72-.59-1.2-1.24-1.46-1.96l1.01-.43c.23.65.67,1.21,1.34,1.7.67.49,1.42.86,2.27,1.13s1.64.4,2.4.4c.93,0,1.81-.16,2.62-.49.81-.33,1.47-.79,1.98-1.38.5-.59.75-1.27.75-2.05s-.26-1.46-.78-1.93c-.52-.47-1.19-.86-2.01-1.16-.82-.3-1.67-.59-2.56-.86-1.38-.43-2.55-.84-3.51-1.22-.96-.38-1.7-.86-2.2-1.43-.5-.57-.75-1.35-.75-2.35s.3-1.9.92-2.65,1.41-1.33,2.39-1.73c.98-.41,2.04-.61,3.16-.61,1.5,0,2.85.33,4.05,1,1.2.67,2.02,1.52,2.45,2.56l-.93.54c-.25-.64-.67-1.18-1.27-1.63-.59-.45-1.27-.79-2.03-1.03-.76-.24-1.52-.36-2.27-.36-.95,0-1.83.16-2.65.48-.82.32-1.48.77-1.99,1.36-.5.59-.75,1.28-.75,2.09s.21,1.46.64,1.9c.43.44,1.04.79,1.84,1.07.8.28,1.77.59,2.91.95,1.13.36,2.18.74,3.16,1.13.98.4,1.77.9,2.37,1.5.61.61.91,1.41.91,2.4s-.3,1.9-.91,2.65c-.61.75-1.4,1.33-2.38,1.73s-2.03.61-3.15.61Z"/>
        <path class="cls-2" d="M486.47,7.19h1.08v17.98h-1.08v-4.21c-.65,1.4-1.59,2.53-2.84,3.39s-2.74,1.29-4.49,1.29c-1.31,0-2.53-.25-3.67-.74-1.14-.49-2.14-1.17-3.01-2.04-.87-.87-1.55-1.87-2.04-3.01-.49-1.14-.74-2.36-.74-3.67s.25-2.55.74-3.69,1.17-2.15,2.04-3.02c.87-.87,1.87-1.55,3.01-2.04,1.14-.49,2.36-.74,3.67-.74,1.75,0,3.25.43,4.49,1.29,1.25.86,2.19,1.99,2.84,3.39v-4.17ZM479.13,24.55c1.55,0,2.86-.38,3.95-1.13,1.08-.75,1.91-1.77,2.47-3.04.56-1.27.84-2.67.84-4.21s-.29-2.99-.86-4.26c-.58-1.27-1.4-2.28-2.49-3.03s-2.39-1.12-3.91-1.12-2.96.38-4.22,1.13c-1.27.75-2.28,1.77-3.03,3.05s-1.12,2.69-1.12,4.23.39,2.99,1.16,4.25c.77,1.26,1.79,2.27,3.06,3.01,1.27.74,2.65,1.11,4.15,1.11Z"/>
        <path class="cls-2" d="M506.17,7.19h1.08v18.87c0,1.04-.24,2.05-.71,3.01-.47.96-1.11,1.83-1.91,2.6-.8.77-1.7,1.37-2.7,1.82-1,.44-2.03.67-3.1.67-1.25,0-2.45-.3-3.6-.91-1.16-.61-2.15-1.41-2.97-2.4s-1.38-2.07-1.65-3.24l1.01-.47c.2,1.08.68,2.07,1.42,2.97.74.9,1.63,1.62,2.66,2.16,1.03.54,2.08.81,3.15.81.92,0,1.82-.19,2.7-.58.88-.39,1.66-.91,2.35-1.57.7-.66,1.25-1.41,1.66-2.25.41-.84.62-1.71.62-2.61v-5.07c-.66,1.38-1.6,2.5-2.82,3.35-1.22.86-2.65,1.29-4.3,1.29-1.23,0-2.4-.25-3.49-.74-1.09-.49-2.05-1.17-2.87-2.04-.82-.87-1.46-1.87-1.93-3.01-.47-1.14-.7-2.36-.7-3.67s.23-2.55.7-3.69c.47-1.14,1.11-2.15,1.93-3.02.82-.87,1.78-1.55,2.87-2.04,1.09-.49,2.25-.74,3.49-.74,1.64,0,3.07.43,4.3,1.28,1.22.85,2.16,1.97,2.82,3.36v-4.13ZM499.05,24.55c1.49,0,2.76-.39,3.81-1.17,1.05-.78,1.86-1.8,2.43-3.07.56-1.27.84-2.65.84-4.13s-.28-2.92-.85-4.2-1.38-2.3-2.44-3.06c-1.06-.77-2.32-1.15-3.78-1.15s-2.81.38-4,1.13-2.14,1.77-2.85,3.05-1.06,2.69-1.06,4.23.36,2.97,1.08,4.23c.72,1.26,1.68,2.27,2.88,3.02,1.2.75,2.52,1.12,3.96,1.12Z"/>
        <path class="cls-2" d="M519.47,25.63c-1.65,0-3.16-.43-4.52-1.28-1.36-.85-2.45-1.99-3.25-3.42-.81-1.43-1.21-3.02-1.21-4.75,0-1.32.23-2.55.7-3.69.47-1.14,1.11-2.15,1.93-3.02.82-.87,1.78-1.55,2.87-2.04,1.09-.49,2.25-.74,3.49-.74,1.65,0,3.16.43,4.52,1.28,1.36.85,2.45,2,3.25,3.43.81,1.44,1.21,3.03,1.21,4.78,0,1.31-.23,2.53-.7,3.67-.47,1.14-1.11,2.14-1.93,3.01-.82.87-1.77,1.55-2.86,2.04s-2.25.74-3.5.74ZM519.47,24.55c1.49,0,2.83-.39,4.02-1.16s2.14-1.79,2.84-3.06c.7-1.27,1.05-2.65,1.05-4.15s-.35-2.9-1.05-4.18-1.65-2.3-2.84-3.07-2.53-1.16-4.02-1.16-2.84.39-4.04,1.16c-1.19.77-2.14,1.8-2.83,3.07-.69,1.28-1.04,2.67-1.04,4.18s.36,2.97,1.08,4.23c.72,1.26,1.68,2.27,2.88,3.02,1.2.75,2.52,1.12,3.96,1.12Z"/>
        <path class="cls-2" d="M531.69,25.17V7.19h1.08v3.15c.66-1.1,1.56-1.99,2.7-2.65s2.39-1,3.76-1c.71,0,1.38.09,2.03.27l-.47,1.01c-.53-.13-1.05-.2-1.56-.2-1.19,0-2.27.29-3.24.87-.98.58-1.76,1.36-2.34,2.33s-.87,2.06-.87,3.25v10.95h-1.08Z"/>
        <path class="cls-2" d="M560.85,0h1.65l9.17,25.17h-1.15l-2.23-6.11h-13.23l-2.23,6.11h-1.15l9.17-25.17ZM555.46,17.98h12.44l-6.22-17.08-6.22,17.08Z"/>
        <path class="cls-2" d="M575.26,25.17V0h7.98c1.15,0,2.2.23,3.15.69.95.46,1.7,1.14,2.26,2.05.56.91.84,2.02.84,3.35,0,.89-.17,1.71-.52,2.45-.35.75-.77,1.36-1.28,1.84-.5.48-.98.75-1.44.83.72.2,1.36.53,1.93.97.57.44,1.06.97,1.46,1.59.41.62.72,1.28.93,1.99.21.71.31,1.43.31,2.18,0,1.5-.29,2.79-.88,3.86s-1.37,1.91-2.35,2.49c-.98.58-2.06.87-3.25.87h-9.17ZM576.34,10.79h6.9c1.43,0,2.64-.4,3.66-1.2,1.01-.8,1.52-1.97,1.52-3.49,0-1.71-.51-2.98-1.52-3.79s-2.23-1.22-3.66-1.22h-6.9v9.71ZM576.34,24.09h8.09c1,0,1.9-.27,2.71-.8.81-.53,1.46-1.26,1.95-2.19s.73-1.98.73-3.15c0-1.05-.24-2.04-.73-2.97-.49-.92-1.14-1.67-1.95-2.25-.82-.58-1.72-.86-2.71-.86h-8.09v12.22Z"/>
      </g>
      <g id="Logga-2" data-name="Logga">
        <rect class="cls-3" x="242.25" y="37.19" width="349.88" height="112.77"/>
        <path class="cls-1" d="M112.27,58.88c12.1-5,24.36-10.06,35.8-13.19,44.55-12.19,27.5,21.1,27.71,19.32.14-1.17,5.95-15.99-1.2-24.23-5.34-6.16-22.38-4.5-28.56-3.08-12.03,2.75-24.76,7.59-36.36,13.36l10.12-4.65c-12.1,5-24.34,10.17-35.78,13.3-44.55,12.19-27.5-21.1-27.71-19.32-.14,1.17-5.95,15.99,1.2,24.23,5.34,6.16,22.38,4.5,28.56,3.08,12.03-2.75,19.78-5.67,31.68-11.26"/>
        <g>
          <path class="cls-2" d="M29.22,136.38c-4.29,0-8.43-.67-12.43-2.01-4-1.34-7.49-3.25-10.48-5.74-2.99-2.49-5.09-5.45-6.31-8.9l7.52-2.81c.84,2.37,2.38,4.41,4.62,6.11,2.24,1.7,4.86,3.01,7.86,3.93,3,.92,6.07,1.38,9.21,1.38,3.67,0,7.1-.61,10.27-1.84,3.18-1.23,5.74-2.94,7.69-5.14s2.93-4.79,2.93-7.78-1.01-5.51-3.04-7.46c-2.03-1.95-4.64-3.49-7.84-4.62-3.2-1.13-6.54-2-10.02-2.61-5.47-.96-10.38-2.26-14.72-3.9-4.34-1.64-7.78-3.97-10.3-6.97-2.52-3-3.79-6.97-3.79-11.91,0-4.63,1.34-8.65,4.02-12.05,2.68-3.41,6.21-6.05,10.59-7.92,4.38-1.87,9.12-2.81,14.21-2.81,4.17,0,8.25.65,12.23,1.95,3.98,1.3,7.49,3.2,10.53,5.68,3.04,2.49,5.23,5.53,6.57,9.13l-7.63,2.76c-.84-2.41-2.38-4.47-4.62-6.17s-4.85-3-7.84-3.9-6.07-1.35-9.24-1.35c-3.64-.04-7.03.57-10.19,1.81s-5.71,2.97-7.66,5.17c-1.95,2.2-2.93,4.77-2.93,7.72,0,3.44.91,6.1,2.73,7.95,1.82,1.86,4.3,3.24,7.43,4.16,3.14.92,6.68,1.74,10.62,2.47,5.13.88,9.89,2.25,14.29,4.1,4.4,1.86,7.94,4.33,10.62,7.41,2.68,3.08,4.02,6.88,4.02,11.39s-1.34,8.6-4.02,12.03c-2.68,3.43-6.21,6.08-10.59,7.95-4.38,1.87-9.16,2.81-14.32,2.81Z"/>
          <path class="cls-2" d="M127.7,136.6v-57.4h8.04v7.92c2.03-2.91,4.67-5.22,7.92-6.95,3.25-1.72,6.79-2.58,10.62-2.58,2.22,0,4.36.29,6.43.86l-3.27,7.98c-1.61-.5-3.18-.75-4.71-.75-3.1,0-5.94.77-8.53,2.3-2.58,1.53-4.64,3.58-6.17,6.14-1.53,2.56-2.3,5.42-2.3,8.55v33.93h-8.04Z"/>
          <path class="cls-2" d="M218.28,136.6h-10.22l-20.95-57.57h8.55l17.51,48.16,17.51-48.16h8.55l-20.95,57.57Z"/>
          <path class="cls-2" d="M297.67,101.64v34.96h-3.45v-34.96c0-3.83-.93-7.29-2.78-10.39-1.86-3.1-4.34-5.58-7.46-7.43-3.12-1.86-6.57-2.78-10.36-2.78s-7.24.93-10.36,2.78c-3.12,1.86-5.61,4.33-7.46,7.43-1.86,3.1-2.78,6.56-2.78,10.39v34.96h-3.44V50.49h3.44v38.75c2.1-3.52,4.98-6.34,8.61-8.47,3.64-2.12,7.63-3.19,12-3.19s8.48,1.08,12.11,3.24,6.53,5.06,8.7,8.7c2.16,3.64,3.24,7.67,3.24,12.11Z"/>
          <path class="cls-2" d="M334.4,138.09c-5.28,0-10.09-1.36-14.44-4.08-4.34-2.72-7.81-6.36-10.39-10.93s-3.87-9.63-3.87-15.18c0-4.21.75-8.14,2.24-11.8,1.49-3.65,3.55-6.87,6.17-9.64,2.62-2.77,5.67-4.95,9.16-6.52,3.48-1.57,7.19-2.35,11.13-2.35,5.28,0,10.09,1.36,14.44,4.08s7.81,6.37,10.39,10.96c2.58,4.59,3.87,9.68,3.87,15.27,0,4.17-.75,8.07-2.24,11.71s-3.55,6.84-6.17,9.62c-2.62,2.77-5.66,4.95-9.13,6.52-3.46,1.57-7.18,2.35-11.16,2.35ZM334.4,134.65c4.75,0,9.02-1.23,12.83-3.7,3.81-2.47,6.83-5.73,9.07-9.79,2.24-4.06,3.36-8.48,3.36-13.26s-1.12-9.27-3.36-13.35c-2.24-4.08-5.26-7.35-9.07-9.82-3.81-2.47-8.08-3.7-12.83-3.7s-9.08,1.23-12.89,3.7c-3.81,2.47-6.82,5.74-9.04,9.82-2.22,4.08-3.33,8.52-3.33,13.35s1.15,9.48,3.44,13.52c2.3,4.04,5.36,7.25,9.19,9.64,3.83,2.39,8.03,3.59,12.63,3.59ZM327.23,74.08c-.73,0-1.37-.24-1.92-.72-.55-.48-.83-1.08-.83-1.81,0-.69.28-1.3.83-1.84.55-.54,1.2-.8,1.92-.8.69,0,1.3.27,1.84.8.53.54.8,1.15.8,1.84,0,.73-.27,1.33-.8,1.81-.54.48-1.15.72-1.84.72ZM341.69,74.08c-.73,0-1.37-.24-1.92-.72-.56-.48-.83-1.08-.83-1.81,0-.69.28-1.3.83-1.84.55-.54,1.2-.8,1.92-.8.69,0,1.3.27,1.84.8.53.54.8,1.15.8,1.84,0,.73-.27,1.33-.8,1.81-.54.48-1.15.72-1.84.72Z"/>
          <path class="cls-2" d="M373.44,136.6v-57.4h3.44v10.05c2.1-3.52,4.98-6.34,8.61-8.47,3.63-2.12,7.63-3.19,12-3.19,2.26,0,4.42.29,6.49.86l-1.49,3.22c-1.68-.42-3.35-.63-4.99-.63-3.79,0-7.24.93-10.36,2.78s-5.61,4.33-7.46,7.43-2.78,6.56-2.78,10.39v34.96h-3.44Z"/>
          <path class="cls-2" d="M460.12,101.64v34.96h-3.45v-34.96c0-3.83-.93-7.29-2.78-10.39s-4.34-5.58-7.46-7.43c-3.12-1.86-6.57-2.78-10.36-2.78s-7.24.93-10.36,2.78c-3.12,1.86-5.61,4.33-7.46,7.43s-2.78,6.56-2.78,10.39v34.96h-3.44v-57.4h3.44v10.05c2.1-3.52,4.98-6.34,8.61-8.47,3.63-2.12,7.63-3.19,12-3.19s8.48,1.08,12.11,3.24c3.63,2.16,6.53,5.06,8.7,8.7,2.16,3.64,3.24,7.67,3.24,12.11Z"/>
          <path class="cls-2" d="M521.77,79.19h3.44v57.4h-3.44v-13.43c-2.07,4.48-5.09,8.09-9.07,10.82-3.98,2.74-8.77,4.1-14.35,4.1-4.17,0-8.08-.78-11.71-2.35-3.64-1.57-6.84-3.74-9.61-6.52-2.78-2.77-4.95-5.98-6.52-9.62s-2.35-7.54-2.35-11.71.78-8.14,2.35-11.8c1.57-3.65,3.74-6.87,6.52-9.64,2.77-2.77,5.98-4.95,9.61-6.52,3.63-1.57,7.54-2.35,11.71-2.35,5.58,0,10.37,1.37,14.35,4.1,3.98,2.74,7,6.34,9.07,10.82v-13.32ZM498.35,134.65c4.94,0,9.14-1.21,12.6-3.62,3.46-2.41,6.09-5.64,7.89-9.7,1.8-4.06,2.7-8.53,2.7-13.43s-.92-9.55-2.75-13.6c-1.84-4.06-4.49-7.28-7.95-9.67-3.46-2.39-7.63-3.59-12.48-3.59s-9.43,1.21-13.49,3.62c-4.06,2.41-7.28,5.65-9.67,9.73-2.39,4.07-3.59,8.58-3.59,13.52s1.24,9.54,3.7,13.58c2.47,4.04,5.73,7.24,9.79,9.62,4.06,2.37,8.48,3.56,13.26,3.56Z"/>
          <path class="cls-2" d="M584.8,101.64v34.96h-3.45v-34.96c0-3.83-.93-7.29-2.78-10.39-1.86-3.1-4.34-5.58-7.46-7.43-3.12-1.86-6.57-2.78-10.36-2.78s-7.24.93-10.36,2.78c-3.12,1.86-5.61,4.33-7.46,7.43-1.86,3.1-2.78,6.56-2.78,10.39v34.96h-3.45v-57.4h3.45v10.05c2.1-3.52,4.97-6.34,8.61-8.47,3.63-2.12,7.64-3.19,12-3.19s8.48,1.08,12.11,3.24c3.63,2.16,6.53,5.06,8.7,8.7,2.16,3.64,3.24,7.67,3.24,12.11Z"/>
          <path class="cls-2" d="M116.16,136.6h-9.24l-16.07-27.73-11.48,13.72v14.01h-8.04V50.49h8.04v59.58l25.89-30.88h10.5l-19.46,23.13,19.86,34.27Z"/>
        </g>
        <path class="cls-2" d="M170.45,79.14l4-6.44,4.04,6.44v57.4h-8.04v-57.4Z"/>
      </g>
    </g>
  </g>
</svg>